<svg xmlns="http://www.w3.org/2000/svg" width="21.5" height="19.121" viewBox="0 0 21.5 19.121">
  <g id="Hide_icon" data-name="Hide icon" transform="translate(-1818.75 -269.552)">
    <path id="Path_1" data-name="Path 1" d="M7.836,11.286a3.357,3.357,0,0,1-1-2.4,3.419,3.419,0,0,1,5.832-2.415" transform="translate(1819.244 270.23)" fill="none" stroke="#000" stroke-linecap="round" stroke-linejoin="round" stroke-width="1.5"/>
    <path id="Path_2" data-name="Path 2" d="M13.311,9.2a3.409,3.409,0,0,1-2.743,2.74" transform="translate(1819.547 270.52)" fill="none" stroke="#000" stroke-linecap="round" stroke-linejoin="round" stroke-width="1.5"/>
    <path id="Path_3" data-name="Path 3" d="M4.967,14.954A14.489,14.489,0,0,1,.75,9.2,14.648,14.648,0,0,1,5,3.423a9.245,9.245,0,0,1,5.748-2.089A9.269,9.269,0,0,1,16.52,3.443" transform="translate(1818.75 269.908)" fill="none" stroke="#000" stroke-linecap="round" stroke-linejoin="round" stroke-width="1.5"/>
    <path id="Path_4" data-name="Path 4" d="M18.258,5.491A16.559,16.559,0,0,1,20.2,8.882c-2.127,4.911-5.885,7.867-10,7.867a8.674,8.674,0,0,1-2.735-.443" transform="translate(1819.295 270.232)" fill="none" stroke="#000" stroke-linecap="round" stroke-linejoin="round" stroke-width="1.5"/>
    <line id="Line_5" data-name="Line 5" x1="17.055" y2="17" transform="translate(1820.974 270.613)" fill="none" stroke="#000" stroke-linecap="round" stroke-linejoin="round" stroke-width="1.5"/>
  </g>
</svg>
