<svg xmlns="http://www.w3.org/2000/svg" width="200" height="72.423" viewBox="0 0 200 72.423">
  <g id="Typography" transform="translate(-1273 -281.529)">
    <path id="Path_1" data-name="Path 1" d="M43.929,33.736A18.466,18.466,0,0,0,7.1,31.679c-.481,3.185-3.733,4.026-7,4.884,3.5.135,6.811.66,8.151,3.922a18.456,18.456,0,0,0,35.681-6.749" transform="translate(1273.068 292.218)" fill="#ffc800"/>
    <path id="Path_2" data-name="Path 2" d="M16.933,37.914a3.276,3.276,0,1,1-1.253,6.3,3.205,3.205,0,0,1-1.062-.711,3.275,3.275,0,0,1,2.316-5.592M56,44.426A28,28,0,0,1,.142,47.252C.051,46.334,0,45.362,0,44.421a28.034,28.034,0,0,1,18.354-26.29,8.444,8.444,0,0,1,7.553.9c.481.315.812.524.812.524C16.062,9.34,26.094,1.289,26.094,1.289,29-.564,29.61,1.178,29.5,2.176c-.218,1.954-.022,8.08,3.2,10.571,0,0-3.223-4.088-1.775-8.4A7.177,7.177,0,0,1,33.894.473c1.187-.757,2.075-.489,2.5,0a1.62,1.62,0,0,1,.348,1.165C36.491,11.814,50.195,25.767,52.355,30.6A27.883,27.883,0,0,1,56,44.426m-12,0A18.466,18.466,0,0,0,7.169,42.368c-.481,3.185-3.733,4.026-7,4.884,3.5.135,6.811.66,8.151,3.922A18.456,18.456,0,0,0,44,44.424" transform="translate(1273 281.529)" fill="#1e2335"/>
    <path id="Path_3" data-name="Path 3" d="M50.825,45.906a13.643,13.643,0,0,1-5.158-.967,13.031,13.031,0,0,1-4.35-2.925,13.6,13.6,0,0,1-3.107-5.343,24.386,24.386,0,0,1-1.151-7.851q0-7.873,4.031-12.2a12.821,12.821,0,0,1,9.739-4.328,11.965,11.965,0,0,1,8.45,3.087,13.037,13.037,0,0,1,3.984,8.288l-4.7.784q-1.243-7.83-7.735-7.831a7.914,7.914,0,0,0-6.4,3.107q-2.532,3.108-2.532,9.094,0,6.4,2.485,9.579a7.812,7.812,0,0,0,6.446,3.179q6.722,0,7.554-8.656l4.927.783a13.652,13.652,0,0,1-3.777,8.91,11.811,11.811,0,0,1-8.7,3.291m27.811,0A10.469,10.469,0,0,1,70.6,42.5q-3.154-3.407-3.153-9.486,0-5.988,3.225-9.44a10.46,10.46,0,0,1,7.967-3.451,10.283,10.283,0,0,1,7.851,3.455q3.2,3.453,3.2,9.44,0,6.078-3.11,9.485a10.272,10.272,0,0,1-7.943,3.405m0-4.052a5.827,5.827,0,0,0,4.788-2.324,10.255,10.255,0,0,0,1.843-6.516,10.173,10.173,0,0,0-1.842-6.47,5.826,5.826,0,0,0-4.788-2.326,6.024,6.024,0,0,0-4.9,2.28,10.041,10.041,0,0,0-1.866,6.514,10.043,10.043,0,0,0,1.888,6.54,6.016,6.016,0,0,0,4.881,2.3M96.5,45.222l0-20.491-3.591,0V20.816H96.6l0-3.591q0-3.085,1.475-4.35a6.23,6.23,0,0,1,4.188-1.267l3.777,0,0,4.052-2.9,0a2.32,2.32,0,0,0-1.748.508,3.135,3.135,0,0,0-.462,2.026v2.623l6.078,0v3.914h-5.987l0,20.491Zm15.7,0,0-20.491h-3.591l0-3.915H112.3V17.227q0-3.085,1.475-4.35a6.232,6.232,0,0,1,4.19-1.265h3.775v4.052h-2.9a2.334,2.334,0,0,0-1.75.506,3.151,3.151,0,0,0-.46,2.026V20.82h6.078v3.915l-5.987,0,0,20.492Zm31.222-7.778,3.361,2.534a12.083,12.083,0,0,1-3.961,4.258,10.908,10.908,0,0,1-6.17,1.68,10.586,10.586,0,0,1-8.243-3.523q-3.177-3.522-3.175-9.371t3.155-9.372a10.307,10.307,0,0,1,8.037-3.52A10.16,10.16,0,0,1,144.4,23.61q3.085,3.479,3.085,9.418v1.334l-17.684,0a8.755,8.755,0,0,0,1.818,5.411,6,6,0,0,0,4.95,2.142,8.078,8.078,0,0,0,2.694-.414,5.333,5.333,0,0,0,2.026-1.265,12.664,12.664,0,0,0,1.221-1.359c.246-.336.553-.813.921-1.427m-13.583-6.586,13.17,0a7.891,7.891,0,0,0-1.75-4.766,5.9,5.9,0,0,0-4.834-1.958,5.82,5.82,0,0,0-4.79,2.094,7.626,7.626,0,0,0-1.8,4.628m39.967,6.591,3.363,2.532a12.058,12.058,0,0,1-3.963,4.258,10.894,10.894,0,0,1-6.17,1.68A10.582,10.582,0,0,1,154.8,42.4q-3.177-3.522-3.177-9.37t3.156-9.372a10.307,10.307,0,0,1,8.035-3.52,10.16,10.16,0,0,1,7.965,3.477q3.085,3.479,3.085,9.418v1.334l-17.682,0A8.754,8.754,0,0,0,158,39.774a5.99,5.99,0,0,0,4.95,2.142,8.079,8.079,0,0,0,2.694-.414,5.312,5.312,0,0,0,2.026-1.265,12.666,12.666,0,0,0,1.221-1.359q.368-.5.921-1.426m-13.583-6.587,13.17,0a7.9,7.9,0,0,0-1.75-4.766,5.9,5.9,0,0,0-4.834-1.958,5.827,5.827,0,0,0-4.79,2.094,7.629,7.629,0,0,0-1.8,4.628" transform="translate(1299.136 289.716)" fill="#ffc800"/>
    <path id="Path_4" data-name="Path 4" d="M39.848,42.635l-1.572,2.5h-1.2l2.266-3.31-2.29-3.31h1.258l1.572,2.462h.1l1.554-2.462h1.2l-2.248,3.267,2.278,3.353H41.513l-1.565-2.5Zm6.32,2.433L43.689,38.5h1.129l1.811,5.24h.1L48.54,38.5h1.129l-2.488,6.57v2.259H46.168ZM57.15,41.809c0,2.069-1.1,3.426-2.783,3.426a2.222,2.222,0,0,1-2.07-1.112h-.1l0,3.206H51.142l0-8.832H52.15V39.6h.1a2.389,2.389,0,0,1,2.12-1.221c1.688,0,2.781,1.345,2.781,3.428m-1.093,0c0-1.548-.725-2.476-1.935-2.476s-1.953.952-1.953,2.474.755,2.476,1.946,2.476c1.216,0,1.942-.928,1.942-2.474m3.924-2.427v5.737H58.923l0-6.62h4.238v.885Zm7.08,4.9a2.034,2.034,0,0,0,1.966-2.137H65.944v-.885h3.064a1.954,1.954,0,0,0-1.946-1.922,1.651,1.651,0,0,0-1.726,1.192H64.268a2.609,2.609,0,0,1,2.795-2.144c1.854,0,3.064,1.339,3.064,3.4,0,2.108-1.218,3.446-3.071,3.445a2.568,2.568,0,0,1-2.788-2.113h1.068a1.605,1.605,0,0,0,1.726,1.161m4.422.9a1,1,0,0,1-.387-.067v-.97a1.1,1.1,0,0,0,.333.049c.657,0,.909-.769.994-2l.259-3.69h4.33l0,6.62H75.954V39.386l-2.314,0-.21,2.832c-.135,1.818-.571,2.96-1.947,2.959m12.425-5.789H81.759l0,5.737H80.7V39.386H78.553V38.5l5.355,0Zm1.542,5.737V38.5h1.057l0,4.937h.1L89.9,38.5h1.057l0,6.622H89.9V40.186h-.1l-3.3,4.937Zm7.609,0,0-6.622,1.056,0v4.937h.1l3.3-4.937h1.056l0,6.62H97.511V40.188h-.1l-3.3,4.937Zm1.61-9.556a1.156,1.156,0,1,0,2.3,0h.958a2.108,2.108,0,0,1-4.212,0Zm10.36,6.56h-3.3v3l-1.057,0,0-6.62h1.056v2.739l3.3,0V38.5l1.056,0v6.62h-1.057Zm8.555,2.95L111.1,38.506h1.129l1.811,5.239h.1l1.813-5.239,1.129,0-2.488,6.57v2.259h-1.013Zm4.969.049v-6.62h1.057l0,4.937h.1l3.3-4.937h1.057l0,6.62H123V40.191h-.1l-3.3,4.937Zm1.61-9.556a1.156,1.156,0,1,0,2.3,0l.958,0a2.109,2.109,0,0,1-4.214,0Zm5.643,9.613a.982.982,0,0,1-.387-.068v-.97a1.084,1.084,0,0,0,.333.049c.657,0,.909-.767.994-2L127,38.508l4.33,0,0,6.62h-1.056V39.393H127.96l-.208,2.831c-.136,1.818-.571,2.96-1.947,2.96m11.62-.053V42.374h-.1a2.723,2.723,0,0,1-1.589.4,2.2,2.2,0,0,1-2.427-2.37V38.51h1.057V40.4a1.276,1.276,0,0,0,1.369,1.431,2.285,2.285,0,0,0,1.688-.527V38.51h1.057l0,6.622Zm3.156,0V38.51l1.057,0,0,4.937h.1l3.3-4.937h1.057l0,6.62h-1.056V40.194h-.1l-3.3,4.937Zm7.253.056a.989.989,0,0,1-.387-.068v-.97a1.1,1.1,0,0,0,.333.049c.657,0,.909-.767.994-2l.259-3.692,4.33,0,0,6.62H152.3l0-5.737H149.99l-.21,2.831c-.135,1.818-.571,2.96-1.947,2.96m8.685-5.791v5.737h-1.057l0-6.62H159.7V39.4Zm7.08,4.9a2.033,2.033,0,0,0,1.966-2.137h-3.083V41.27l3.064,0a1.955,1.955,0,0,0-1.946-1.924,1.655,1.655,0,0,0-1.727,1.192h-1.068A2.609,2.609,0,0,1,163.6,38.4c1.854,0,3.064,1.339,3.063,3.4,0,2.108-1.216,3.446-3.071,3.446a2.567,2.567,0,0,1-2.786-2.115l1.068,0a1.606,1.606,0,0,0,1.726,1.16m7.2,0a2.034,2.034,0,0,0,1.966-2.137H169.68v-.885h3.064A1.955,1.955,0,0,0,170.8,39.35a1.654,1.654,0,0,0-1.726,1.19H168A2.608,2.608,0,0,1,170.8,38.4c1.854,0,3.064,1.339,3.063,3.4,0,2.106-1.216,3.445-3.071,3.445A2.569,2.569,0,0,1,168,43.133h1.069a1.605,1.605,0,0,0,1.726,1.161" transform="translate(1299.134 306.615)" fill="#1e2335"/>
  </g>
</svg>
